<svg xmlns="http://www.w3.org/2000/svg" viewBox="0 0 549.62 544.12"><defs><style>.a{fill-rule:evenodd;}</style></defs><title>skull</title><path class="a" d="M262,105.5c113.07-1.78,199.05,20.21,263,70,14.66,11.42,17.2,30.35,28,40,4-1.11,1.48-2.58,4-1,16.17,16.19,6.89,35.39,16,56,7.34,16.61,4.66,9.81,1,27-2.52,11.83,4.39,13.53,3,22-5.35,32.56-38,78.71-61,93l-62,25c-15.65,7-30.87,18.62-45,27-8.57,5.08-29.21,9.58-35,20l-9,79,2,26c-2.53,9.19-16.67,44.35-23,55-43.83,3-156.5,15.9-176-17-4.66-7.87-2.87-13.51-5-23-3.89-17.35-7.19-63.85,5-75,4.55,1,5.85-3.17,13-5-.48,34.32-5.2,67.29,11,91,2.32-2.69.95-2.5,5-4,1.07,4.78,6,4.36,12,7l-3,2c6.79-.18,8.88.33,15,2l2,5c-3,1.26-1.2,0-3,2,26,.22,95.89,6.49,116-6,1.65-7.78,4.68-7.32,10-11-11.28-15.88-1.11-112.39,10-129,2.68-4,25.82-27.2,28-28h11c16.79-9,30.73-25.35,50-34,49.4-22.18,87.31-17.81,103-81,3.16-12.71,4.88-39.22,0-55-4-12.79-9.91-25.32-15-36-5.35-11.23-20-34-33-44-36.09-27.68-87-41.49-135-57-27.21-8.79-92.52-10.26-120-4l-18-1c-16.58,3.79-45.35,8.09-59,14l-27,10c-47.42,29.84-66.7,80.18-81,102-14,21.35-8.39,52.18,2,72,2.11,4-2.51,5.92-2,8l11,23c22.91,36.58,53.74,68.62,94,90l-2,2-2-1,2,3c6.35,8.87,17.6,16.4,19,30l-5,7c-21.25,3.06-43.36-24-59-35-28-19.66-99.1-102.44-89-155,4.92-25.62,13.81-58.19,26-87,22.94-54.21,64.86-96.72,127-112l60-8Z" transform="translate(-28.03 -105.4)"/><path class="a" d="M549,205.5l1,2Z" transform="translate(-28.03 -105.4)"/><path class="a" d="M550,207.5l1,2Z" transform="translate(-28.03 -105.4)"/><path class="a" d="M236,214.5l13,5c-3,20.1-45.73,58.47-42,71,15.25,7.51,47.46,44.67,58,59l-1,6-11-1c-13.9-12.78-39.48-50.86-55-55-5.63,18.78-34.07,64.94-48,76-6.39,0-7,.53-9-3l-2-6c14.08-16,44.2-57.9,48-81l-54-53,1-7,8-1c6.84,9.5,43.87,47.73,54,51Z" transform="translate(-28.03 -105.4)"/><path class="a" d="M316,216.5c18.9,7,45.77,46.73,58,63l3-2,30-52c5.49-.26,6.27-.76,9,1,4.19,1.6,6.12,2.92,5,7-1.79,20.05-28.94,37-34,59,24.58,18.39,54.52,44.76,71,71l-1,5-9,1-69-66-3,2-56,82-12-1-1-4,60-89-58-70,2-5Z" transform="translate(-28.03 -105.4)"/><path class="a" d="M270,454.5c5,.55,3.87-.19,6,3,.21.53-1,111-1,111l-10-2C262.37,547.46,259.88,466.14,270,454.5Z" transform="translate(-28.03 -105.4)"/><path class="a" d="M327,458.5h6l2,2c.25,30.5-3.74,57.17-8,85l-1,59h-5l-5-1v-28C325.15,538.56,314,492.27,327,458.5Z" transform="translate(-28.03 -105.4)"/><path class="a" d="M300,459.5c4.31.21,4.83.26,7,2-7.36,22.67-6,79.25-6,108l-9-2C287.77,552.42,293.85,467.38,300,459.5Z" transform="translate(-28.03 -105.4)"/><path class="a" d="M238,461.5h3l3,2c3.32,18.75-.3,48.87-4,67-3.38,16.58,5.26,30.41,3,44-1.42,8.53-3.66,12.91-8,18l-2-1c-.2-44.36-7.61-85.44,2-128C237.85,461.89,236.26,464.4,238,461.5Z" transform="translate(-28.03 -105.4)"/><path class="a" d="M204,469.5l10,1c0,30.66,1,66.58-4,92-2.69,13.77,8.51,27.12,2,38-2.05,2.1-1.76,1.64-6,2v-2C194.51,574.22,202.81,503.35,204,469.5Z" transform="translate(-28.03 -105.4)"/></svg>